<svg xmlns="http://www.w3.org/2000/svg" width="45.783" height="48.003" viewBox="0 0 45.783 48.003">
    <g id="delete" transform="translate(0.5 0.5)">
        <path id="Path" d="M42.739,2.793h-12V2.216C30.736.336,29.185,0,27.292,0h-9.86C15.538,0,14,.336,14,2.216v.577H2.045A2.041,2.041,0,0,0,0,4.838V8.786a2.045,2.045,0,0,0,2.045,2.045H42.739a2.045,2.045,0,0,0,2.045-2.045V4.838A2.045,2.045,0,0,0,42.739,2.793Z" transform="translate(0)" stroke="#000" stroke-width="1"/>
        <path id="Path-2" data-name="Path" d="M34.143,0H2.03A2.048,2.048,0,0,0,.016,2.3L3.309,27.218A4.029,4.029,0,0,0,7.281,30.74H28.892a4.029,4.029,0,0,0,3.989-3.522L36.171,2.3A2.045,2.045,0,0,0,34.143,0Z" transform="translate(4.305 16.263)" stroke="#000" stroke-width="1"/>
    </g>
</svg>
